<?xml version="1.0" encoding="utf-8"?>
<!-- Generator: Adobe Illustrator 16.0.0, SVG Export Plug-In . SVG Version: 6.00 Build 0)  -->
<!DOCTYPE svg PUBLIC "-//W3C//DTD SVG 1.1//EN" "http://www.w3.org/Graphics/SVG/1.1/DTD/svg11.dtd">
<svg version="1.1" id="Слой_1" xmlns="http://www.w3.org/2000/svg" xmlns:xlink="http://www.w3.org/1999/xlink" x="0px" y="0px"
	 width="619.365px" height="135.415px" viewBox="0 0 619.365 135.415" enable-background="new 0 0 619.365 135.415"
	 xml:space="preserve">
<desc  version="4.6" codePlatform="0" snapToGrid="no" showGrid="no" gridStep="20" iVinci="yes"></desc>
<g id="Layer1">
	<g id="Shape1">
		
			<desc  transform="matrix(1,0,0,1,439.682,262.272)" type="0" flag="" mesh="" locked="0" pers-end="0,0" pers-start="0,0" pers-size="0,0" pers-center="0,0" blurRadius="4" blurEnabled="0" shadowOpacity="160" shadowBlur="4" shadowOffsetY="2" shadowOffsetX="0" shadowEnabled="0" markerEnd="0" markerStart="0" strokeStyle="0" font-alignment="1" font-underline="0" font-bold="0" font-pixelSize="20" font-familyName="" text="" bounding="rect(-310.832,-36.0185,621.664,72.037)" shapeID="1" basicInfo-starPoints="5" basicInfo-polygonSides="6" basicInfo-roundedRectRadius="12" basicInfo-basicType="0">
			</desc>
		<path id="shapePath1" fill="#FF0000" d="M361.46,0h-14.295c-1.5,0-2.494,1.495-2.494,2.65v64.802c0,1.513,1.332,2.503,2.82,2.503
			h13.471c1.811,0,2.967-1.16,2.967-2.503V3.156C363.931,1.15,362.777,0,361.46,0 M329.382,52.171H295.64V2.65
			c0-1.5-0.497-2.646-2.657-2.646h-13.459c-2.17,0-2.655,0.994-2.655,2.646v64.802c0,1.671,0.995,2.503,2.487,2.503h50.026
			c1.822,0,2.488-0.832,2.488-2.503V54.663C331.871,53.169,330.871,52.171,329.382,52.171 M617.042,0h-57.826
			c-1.826,0-2.488,0.997-2.488,2.487v12.458c0,1.829,1.156,2.499,2.488,2.499h19.105v50.008c0,1.513,0.672,2.503,2.662,2.503h13.793
			c1.996,0,2.654-0.832,2.654-2.503V17.443h19.109c1.676,0,2.824-1.333,2.824-2.655V2.487C619.371,0.998,618.378,0,617.042,0
			 M447.537,34.391h-12.295c-1.658,0-2.998,1.494-2.998,2.988v15.137h-15.279C404.49,52.516,402,45.363,402,36.551v-3.326
			c0-8.296,2.99-15.949,14.963-15.949h30.574c2,0,2.826-1.323,2.826-2.485V2.485c0-1.487-0.994-2.481-2.826-2.481h-31.574
			c-21.615,0-33.236,11.954-33.236,31.399v8.48c0,18.108,10.133,30.073,31.898,30.073h32.748c2.656,0,2.99-2.002,2.99-4.001V37.556
			C450.363,35.885,449.71,34.391,447.537,34.391 M157.211,0h-14.29c-1.997,0-2.496,0.654-2.496,2.814V41.21
			c0,9.465-4.985,12.458-13.468,12.458h-5.313c-8.143,0-13.958-1.997-13.958-12.281V2.818c0-1.991-0.828-2.814-2.657-2.814H90.733
			c-1.661,0-2.654,0.653-2.654,2.814v42.545c0,18.437,13.791,26.409,32.069,26.409h7.148c18.778,0,32.568-7.635,32.568-26.409V2.321
			C159.864,0.657,159.035,0,157.211,0 M538.449,0h-13.801c-1.654,0-2.828,0.997-2.828,2.65v23.605h-30.742V3.156
			c0-2.006-0.994-3.156-2.326-3.156h-14.293c-1.49,0-2.486,1.495-2.486,2.65v64.802c0,1.513,1.16,2.503,2.654,2.503h13.793
			c1.666,0,2.658-1.16,2.658-2.503V43.875h30.742v23.423c0,1.498,0.672,2.658,2.662,2.658h13.797c1.66,0,2.668-1.16,2.668-2.658
			V2.65C540.947,1.15,539.939,0,538.449,0 M26.421,25.084c-4.325-0.326-6.145-1.498-6.145-3.977c0-1.839,1.326-3.832,4.815-3.832
			h40.057c1.821,0,3.147-1.162,3.147-2.826V3.491c0-2.341-2.16-3.487-3.644-3.487H26.918c-9.645,0-16.121,2.156-20.442,5.643
			C2.323,9.292,0,13.287,0,20.438c0,10.965,6.476,19.11,23.761,20.602l21.601,1.829c4.494,0.335,6.156,2.326,6.156,4.83
			c0,2.317-1.333,4.473-5.976,4.473H5.31c-2.16,0-3.816,1.499-3.816,2.835v11.956c0,2.002,1.655,2.995,3.318,2.995h39.883
			c16.955,0,26.928-8.809,26.928-22.096c0-12.138-7.804-20.269-27.758-21.605L26.421,25.084 M252.432,0.156h-13.461
			c-1.486,0-2.657,1.497-2.657,2.824v38.06c0,1.173-1.164,1.666-1.99,0.667c-0.668-0.994-25.427-31.589-28.918-35.737
			c-3.489-3.985-6.48-5.813-11.959-5.813h-9.648c-1.831,0-2.492,1.168-2.492,2.658v64.638c0,1.671,0.834,2.666,2.492,2.666h13.625
			c1.999,0,2.821-0.842,2.821-2.666V31.576c0-1.007,0.997-1.506,2.002-0.498c0.833,0.986,24.435,30.224,28.08,34.052
			c3.832,4.324,5.657,4.988,11.312,4.988h10.798c1.833,0,2.835-1.152,2.835-2.318V2.818C255.266,1.15,254.264,0.156,252.432,0.156z"
			/>
	</g>
	<g id="Shape2">
		
			<desc  transform="matrix(1,0,0,1,150.712,344.648)" type="0" flag="" mesh="" locked="0" pers-end="0,0" pers-start="0,0" pers-size="0,0" pers-center="0,0" blurRadius="4" blurEnabled="0" shadowOpacity="160" shadowBlur="4" shadowOffsetY="2" shadowOffsetX="0" shadowEnabled="0" markerEnd="0" markerStart="0" strokeStyle="0" font-alignment="1" font-underline="0" font-bold="0" font-pixelSize="20" font-familyName="" text="" bounding="rect(-21.8275,-17.6385,43.655,35.277)" shapeID="2" basicInfo-starPoints="5" basicInfo-polygonSides="6" basicInfo-roundedRectRadius="12" basicInfo-basicType="0">
			</desc>
		<path id="shapePath2" fill="#4C4C4C" d="M8.996,115.107c1.225-8.354,8.049-14.724,17.167-14.724
			c9.982,0,17.367,7.291,17.367,17.576c0,10.082-7.384,17.574-17.367,17.574c-10.134,0-16.961-7.849-17.317-16.863H3.804v16.248
			H0.035v-33.967h3.769v14.156L8.996,115.107L8.996,115.107 M12.715,117.958c0,7.998,5.958,14.008,13.447,14.008
			c7.486,0,13.496-6.008,13.496-14.008c0-7.998-6.009-14.008-13.496-14.008C18.673,103.952,12.715,109.958,12.715,117.958z"/>
	</g>
	<g id="Shape3">
		
			<desc  transform="matrix(1,0,0,1,189.555,344.622)" type="0" flag="" mesh="" locked="0" pers-end="0,0" pers-start="0,0" pers-size="0,0" pers-center="0,0" blurRadius="4" blurEnabled="0" shadowOpacity="160" shadowBlur="4" shadowOffsetY="2" shadowOffsetX="0" shadowEnabled="0" markerEnd="0" markerStart="0" strokeStyle="0" font-alignment="1" font-underline="0" font-bold="0" font-pixelSize="20" font-familyName="" text="" bounding="rect(-10.0695,-17.046,20.139,34.092)" shapeID="3" basicInfo-starPoints="5" basicInfo-polygonSides="6" basicInfo-roundedRectRadius="12" basicInfo-basicType="0">
			</desc>
		<path id="shapePath3" fill="#4C4C4C" d="M56.562,100.952c1.883,0,5.294,0.146,7.79,2.133c1.071,0.816,3.059,2.902,3.059,7.033
			c0,1.682-0.357,4.635-3.363,6.672c4.738,1.17,6.467,5.295,6.467,8.555s-1.627,5.91-3.462,7.334
			c-2.7,2.138-5.808,2.238-8.151,2.238H50.45v-33.965H56.562 M54.217,115.87h2.851c1.985,0,6.673-0.404,6.673-5.656
			c0-5.596-5.5-5.703-6.57-5.703h-2.953L54.217,115.87L54.217,115.87 M54.217,131.349h4.331c2.19,0,4.327-0.151,5.958-1.42
			c1.324-0.972,2.24-2.654,2.24-4.688c0-2.699-1.579-4.277-2.904-4.996c-1.274-0.709-3.055-1.015-5.753-1.015h-3.871L54.217,131.349
			L54.217,131.349z"/>
	</g>
	<g id="Shape4">
		
			<desc  transform="matrix(1,0,0,1,215.419,344.621)" type="0" flag="" mesh="" locked="0" pers-end="0,0" pers-start="0,0" pers-size="0,0" pers-center="0,0" blurRadius="4" blurEnabled="0" shadowOpacity="160" shadowBlur="4" shadowOffsetY="2" shadowOffsetX="0" shadowEnabled="0" markerEnd="0" markerStart="0" strokeStyle="0" font-alignment="1" font-underline="0" font-bold="0" font-pixelSize="20" font-familyName="" text="" bounding="rect(-8.8445,-17.046,17.689,34.092)" shapeID="4" basicInfo-starPoints="5" basicInfo-polygonSides="6" basicInfo-roundedRectRadius="12" basicInfo-basicType="0">
			</desc>
		<path id="shapePath4" fill="#4C4C4C" d="M95.062,104.508H81.207v10.091h13.446v3.56H81.207v13.19h13.855v3.565H77.438v-33.967
			h17.624V104.508z"/>
	</g>
	<g id="Shape5">
		
			<desc  transform="matrix(1,0,0,1,241.485,344.777)" type="0" flag="" mesh="" locked="0" pers-end="0,0" pers-start="0,0" pers-size="0,0" pers-center="0,0" blurRadius="4" blurEnabled="0" shadowOpacity="160" shadowBlur="4" shadowOffsetY="2" shadowOffsetX="0" shadowEnabled="0" markerEnd="0" markerStart="0" strokeStyle="0" font-alignment="1" font-underline="0" font-bold="0" font-pixelSize="20" font-familyName="" text="" bounding="rect(-13.955,-17.2015,27.91,34.403)" shapeID="5" basicInfo-starPoints="5" basicInfo-polygonSides="6" basicInfo-roundedRectRadius="12" basicInfo-basicType="0">
			</desc>
		<path id="shapePath5" fill="#4C4C4C" d="M126.123,100.952v33.965h-3.768V104.51h-13.142v18.236c0,3.051,0.154,7.535-3.054,10.439
			c-1.477,1.327-3.565,2.039-5.806,2.039c-0.255,0-1.016-0.051-2.038-0.309v-3.565c0.509,0.153,1.171,0.306,1.885,0.306
			c1.527,0,2.649-0.66,3.311-1.318c1.986-1.984,1.935-5.652,1.935-9.119v-20.266L126.123,100.952L126.123,100.952z"/>
	</g>
	<g id="Shape6">
		
			<desc  transform="matrix(1,0,0,1,277.978,344.673)" type="0" flag="" mesh="" locked="0" pers-end="0,0" pers-start="0,0" pers-size="0,0" pers-center="0,0" blurRadius="4" blurEnabled="0" shadowOpacity="160" shadowBlur="4" shadowOffsetY="2" shadowOffsetX="0" shadowEnabled="0" markerEnd="0" markerStart="0" strokeStyle="0" font-alignment="1" font-underline="0" font-bold="0" font-pixelSize="20" font-familyName="" text="" bounding="rect(-13.752,-18.531,27.504,37.062)" shapeID="6" basicInfo-starPoints="5" basicInfo-polygonSides="6" basicInfo-roundedRectRadius="12" basicInfo-basicType="0">
			</desc>
		<path id="shapePath6" fill="#4C4C4C" d="M158.512,108.989l-23.636,27.457v-35.494h3.772v26.023l23.63-27.456v35.396h-3.766
			V108.989z"/>
	</g>
	<g id="Shape7">
		
			<desc  transform="matrix(1,0,0,1,309.467,344.622)" type="0" flag="" mesh="" locked="0" pers-end="0,0" pers-start="0,0" pers-size="0,0" pers-center="0,0" blurRadius="4" blurEnabled="0" shadowOpacity="160" shadowBlur="4" shadowOffsetY="2" shadowOffsetX="0" shadowEnabled="0" markerEnd="0" markerStart="0" strokeStyle="0" font-alignment="1" font-underline="0" font-bold="0" font-pixelSize="20" font-familyName="" text="" bounding="rect(-8.9455,-17.046,17.891,34.092)" shapeID="7" basicInfo-starPoints="5" basicInfo-polygonSides="6" basicInfo-roundedRectRadius="12" basicInfo-basicType="0">
			</desc>
		<path id="shapePath7" fill="#4C4C4C" d="M177.199,100.952c3.411,0,6.262,0.399,8.554,2.387c2.495,2.142,3.109,5.147,3.109,7.287
			c0,4.787-3.008,9.524-10.747,9.524h-3.311v14.767h-3.766v-33.965H177.199 M174.804,116.581h3.105c4.484,0,7.181-2.236,7.181-6.164
			c0-5.394-5.04-5.906-7.486-5.906h-2.802L174.804,116.581L174.804,116.581z"/>
	</g>
	<g id="Shape8">
		
			<desc  transform="matrix(1,0,0,1,336.349,344.621)" type="0" flag="" mesh="" locked="0" pers-end="0,0" pers-start="0,0" pers-size="0,0" pers-center="0,0" blurRadius="4" blurEnabled="0" shadowOpacity="160" shadowBlur="4" shadowOffsetY="2" shadowOffsetX="0" shadowEnabled="0" markerEnd="0" markerStart="0" strokeStyle="0" font-alignment="1" font-underline="0" font-bold="0" font-pixelSize="20" font-familyName="" text="" bounding="rect(-12.525,-17.046,25.05,34.092)" shapeID="8" basicInfo-starPoints="5" basicInfo-polygonSides="6" basicInfo-roundedRectRadius="12" basicInfo-basicType="0">
			</desc>
		<path id="shapePath8" fill="#4C4C4C" d="M198.024,114.75h17.416v-13.803h3.769v33.967h-3.769V118.31h-17.416v16.604h-3.771
			v-33.967h3.771V114.75z"/>
	</g>
	<g id="Shape9">
		
			<desc  transform="matrix(1,0,0,1,371.411,344.622)" type="0" flag="" mesh="" locked="0" pers-end="0,0" pers-start="0,0" pers-size="0,0" pers-center="0,0" blurRadius="4" blurEnabled="0" shadowOpacity="160" shadowBlur="4" shadowOffsetY="2" shadowOffsetX="0" shadowEnabled="0" markerEnd="0" markerStart="0" strokeStyle="0" font-alignment="1" font-underline="0" font-bold="0" font-pixelSize="20" font-familyName="" text="" bounding="rect(-13.7505,-17.046,27.501,34.092)" shapeID="9" basicInfo-starPoints="5" basicInfo-polygonSides="6" basicInfo-roundedRectRadius="12" basicInfo-basicType="0">
			</desc>
		<path id="shapePath9" fill="#4C4C4C" d="M227.966,100.952h3.768v14.103h4.584c4.178,0,11.714,0.868,11.714,9.575
			c0,6.465-4.332,10.285-11.001,10.285h-9.065V100.952 M231.734,131.349h4.378c1.531,0,4.328,0,6.266-1.882
			c0.917-0.866,1.782-2.389,1.782-4.838c0-1.627-0.408-3.871-2.751-5.146c-1.582-0.866-3.614-0.866-5.704-0.866h-3.974
			L231.734,131.349L231.734,131.349 M255.365,100.952v33.965h-3.767v-33.965H255.365z"/>
	</g>
	<g id="Shape10">
		
			<desc  transform="matrix(1,0,0,1,407.701,340.94)" type="0" flag="" mesh="" locked="0" pers-end="0,0" pers-start="0,0" pers-size="0,0" pers-center="0,0" blurRadius="4" blurEnabled="0" shadowOpacity="160" shadowBlur="4" shadowOffsetY="2" shadowOffsetX="0" shadowEnabled="0" markerEnd="0" markerStart="0" strokeStyle="0" font-alignment="1" font-underline="0" font-bold="0" font-pixelSize="20" font-familyName="" text="" bounding="rect(-13.751,-22.2645,27.502,44.529)" shapeID="10" basicInfo-starPoints="5" basicInfo-polygonSides="6" basicInfo-roundedRectRadius="12" basicInfo-basicType="0">
			</desc>
		<path id="shapePath10" fill="#4C4C4C" d="M287.754,108.989l-23.633,27.457v-35.494h3.769v26.023l23.631-27.456v35.396h-3.77
			L287.754,108.989L287.754,108.989 M273.493,92.083c0.813,2.801,3.921,2.853,4.331,2.853c0.405,0,3.513-0.05,4.33-2.853
			l3.563,1.176c-0.306,0.859-2.085,4.941-7.893,4.941c-5.809,0-7.593-4.082-7.896-4.941L273.493,92.083z"/>
	</g>
	<g id="Shape11">
		
			<desc  transform="matrix(1,0,0,1,449.919,344.622)" type="0" flag="" mesh="" locked="0" pers-end="0,0" pers-start="0,0" pers-size="0,0" pers-center="0,0" blurRadius="4" blurEnabled="0" shadowOpacity="160" shadowBlur="4" shadowOffsetY="2" shadowOffsetX="0" shadowEnabled="0" markerEnd="0" markerStart="0" strokeStyle="0" font-alignment="1" font-underline="0" font-bold="0" font-pixelSize="20" font-familyName="" text="" bounding="rect(-7.77051,-17.046,15.541,34.092)" shapeID="11" basicInfo-starPoints="5" basicInfo-polygonSides="6" basicInfo-roundedRectRadius="12" basicInfo-basicType="0">
			</desc>
		<path id="shapePath11" fill="#4C4C4C" d="M312.14,100.952h15.482v3.559H315.91v30.406h-3.77V100.952L312.14,100.952z"/>
	</g>
	<g id="Shape12">
		
			<desc  transform="matrix(1,0,0,1,476.548,344.673)" type="0" flag="" mesh="" locked="0" pers-end="0,0" pers-start="0,0" pers-size="0,0" pers-center="0,0" blurRadius="4" blurEnabled="0" shadowOpacity="160" shadowBlur="4" shadowOffsetY="2" shadowOffsetX="0" shadowEnabled="0" markerEnd="0" markerStart="0" strokeStyle="0" font-alignment="1" font-underline="0" font-bold="0" font-pixelSize="20" font-familyName="" text="" bounding="rect(-13.752,-18.531,27.504,37.062)" shapeID="12" basicInfo-starPoints="5" basicInfo-polygonSides="6" basicInfo-roundedRectRadius="12" basicInfo-basicType="0">
			</desc>
		<path id="shapePath12" fill="#4C4C4C" d="M356.345,108.989l-23.633,27.457v-35.494h3.77v26.023l23.635-27.456v35.396h-3.771
			V108.989z"/>
	</g>
	<g id="Shape13">
		
			<desc  transform="matrix(1,0,0,1,511.612,344.622)" type="0" flag="" mesh="" locked="0" pers-end="0,0" pers-start="0,0" pers-size="0,0" pers-center="0,0" blurRadius="4" blurEnabled="0" shadowOpacity="160" shadowBlur="4" shadowOffsetY="2" shadowOffsetX="0" shadowEnabled="0" markerEnd="0" markerStart="0" strokeStyle="0" font-alignment="1" font-underline="0" font-bold="0" font-pixelSize="20" font-familyName="" text="" bounding="rect(-12.522,-17.046,25.044,34.092)" shapeID="13" basicInfo-starPoints="5" basicInfo-polygonSides="6" basicInfo-roundedRectRadius="12" basicInfo-basicType="0">
			</desc>
		<path id="shapePath13" fill="#4C4C4C" d="M393.824,100.952v33.965h-3.768V104.51h-17.42v30.406h-3.766v-33.965H393.824z"/>
	</g>
	<g id="Shape14">
		
			<desc  transform="matrix(1,0,0,1,541.766,344.621)" type="0" flag="" mesh="" locked="0" pers-end="0,0" pers-start="0,0" pers-size="0,0" pers-center="0,0" blurRadius="4" blurEnabled="0" shadowOpacity="160" shadowBlur="4" shadowOffsetY="2" shadowOffsetX="0" shadowEnabled="0" markerEnd="0" markerStart="0" strokeStyle="0" font-alignment="1" font-underline="0" font-bold="0" font-pixelSize="20" font-familyName="" text="" bounding="rect(-8.84302,-17.046,17.686,34.092)" shapeID="14" basicInfo-starPoints="5" basicInfo-polygonSides="6" basicInfo-roundedRectRadius="12" basicInfo-basicType="0">
			</desc>
		<path id="shapePath14" fill="#4C4C4C" d="M420.201,104.508h-13.852v10.091h13.447v3.56h-13.447v13.19h13.852v3.565H402.58v-33.967
			h17.621V104.508z"/>
	</g>
	<g id="Shape15">
		
			<desc  transform="matrix(1,0,0,1,566.504,344.622)" type="0" flag="" mesh="" locked="0" pers-end="0,0" pers-start="0,0" pers-size="0,0" pers-center="0,0" blurRadius="4" blurEnabled="0" shadowOpacity="160" shadowBlur="4" shadowOffsetY="2" shadowOffsetX="0" shadowEnabled="0" markerEnd="0" markerStart="0" strokeStyle="0" font-alignment="1" font-underline="0" font-bold="0" font-pixelSize="20" font-familyName="" text="" bounding="rect(-8.94501,-17.046,17.89,34.092)" shapeID="15" basicInfo-starPoints="5" basicInfo-polygonSides="6" basicInfo-roundedRectRadius="12" basicInfo-basicType="0">
			</desc>
		<path id="shapePath15" fill="#4C4C4C" d="M433.289,100.952c3.412,0,6.26,0.399,8.555,2.387c2.496,2.142,3.105,5.147,3.105,7.287
			c0,4.787-3.002,9.524-10.742,9.524h-3.313v14.767h-3.77v-33.965H433.289 M430.894,116.581h3.104c4.484,0,7.182-2.236,7.182-6.164
			c0-5.394-5.041-5.906-7.484-5.906h-2.805v12.068h0.004V116.581L430.894,116.581z"/>
	</g>
	<g id="Shape16">
		
			<desc  transform="matrix(1,0,0,1,598.398,344.366)" type="0" flag="" mesh="" locked="0" pers-end="0,0" pers-start="0,0" pers-size="0,0" pers-center="0,0" blurRadius="4" blurEnabled="0" shadowOpacity="160" shadowBlur="4" shadowOffsetY="2" shadowOffsetX="0" shadowEnabled="0" markerEnd="0" markerStart="0" strokeStyle="0" font-alignment="1" font-underline="0" font-bold="0" font-pixelSize="20" font-familyName="" text="" bounding="rect(-18.711,-18.735,37.422,37.47)" shapeID="16" basicInfo-starPoints="5" basicInfo-polygonSides="6" basicInfo-roundedRectRadius="12" basicInfo-basicType="0">
			</desc>
		<path id="shapePath16" fill="#4C4C4C" d="M449.169,134.915l5.658-35.85l13.035,28.671l13.295-28.724l5.297,35.902h-3.869
			l-3.211-23.625l-11.559,25.055l-11.412-25.055l-3.361,23.627h-3.873V134.915L449.169,134.915z"/>
	</g>
	<g id="Shape17">
		
			<desc  transform="matrix(1,0,0,1,636.478,343.802)" type="0" flag="" mesh="" locked="0" pers-end="0,0" pers-start="0,0" pers-size="0,0" pers-center="0,0" blurRadius="4" blurEnabled="0" shadowOpacity="160" shadowBlur="4" shadowOffsetY="2" shadowOffsetX="0" shadowEnabled="0" markerEnd="0" markerStart="0" strokeStyle="0" font-alignment="1" font-underline="0" font-bold="0" font-pixelSize="20" font-familyName="" text="" bounding="rect(-15.488,-17.8645,30.976,35.729)" shapeID="17" basicInfo-starPoints="5" basicInfo-polygonSides="6" basicInfo-roundedRectRadius="12" basicInfo-basicType="0">
			</desc>
		<path id="shapePath17" fill="#4C4C4C" d="M513.035,125.342h-14.463l-4.076,9.572h-4.174l15.633-35.598l15.229,35.598h-4.176
			L513.035,125.342 M511.556,121.776l-5.705-13.595l-5.805,13.595H511.556z"/>
	</g>
	<g id="Shape18">
		
			<desc  transform="matrix(1,0,0,1,665.714,344.622)" type="0" flag="" mesh="" locked="0" pers-end="0,0" pers-start="0,0" pers-size="0,0" pers-center="0,0" blurRadius="4" blurEnabled="0" shadowOpacity="160" shadowBlur="4" shadowOffsetY="2" shadowOffsetX="0" shadowEnabled="0" markerEnd="0" markerStart="0" strokeStyle="0" font-alignment="1" font-underline="0" font-bold="0" font-pixelSize="20" font-familyName="" text="" bounding="rect(-8.94598,-17.046,17.892,34.092)" shapeID="18" basicInfo-starPoints="5" basicInfo-polygonSides="6" basicInfo-roundedRectRadius="12" basicInfo-basicType="0">
			</desc>
		<path id="shapePath18" fill="#4C4C4C" d="M532.13,100.952c3.41,0,6.262,0.399,8.555,2.387c2.496,2.142,3.107,5.147,3.107,7.287
			c0,4.787-3.004,9.524-10.746,9.524h-3.311v14.767h-3.771v-33.965H532.13 M529.738,116.581h3.104c4.484,0,7.182-2.236,7.182-6.164
			c0-5.394-5.041-5.906-7.486-5.906h-2.803v12.068h0.004V116.581L529.738,116.581z"/>
	</g>
	<g id="Shape19">
		
			<desc  transform="matrix(1,0,0,1,692.038,344.621)" type="0" flag="" mesh="" locked="0" pers-end="0,0" pers-start="0,0" pers-size="0,0" pers-center="0,0" blurRadius="4" blurEnabled="0" shadowOpacity="160" shadowBlur="4" shadowOffsetY="2" shadowOffsetX="0" shadowEnabled="0" markerEnd="0" markerStart="0" strokeStyle="0" font-alignment="1" font-underline="0" font-bold="0" font-pixelSize="20" font-familyName="" text="" bounding="rect(-11.962,-17.046,23.924,34.092)" shapeID="19" basicInfo-starPoints="5" basicInfo-polygonSides="6" basicInfo-roundedRectRadius="12" basicInfo-basicType="0">
			</desc>
		<path id="shapePath19" fill="#4C4C4C" d="M552.958,115.512l14.463-14.563h5.09l-15.887,15.836l16.4,18.129h-5.197l-13.904-15.584
			l-0.965,0.967v14.617h-3.771v-33.967h3.771V115.512L552.958,115.512z"/>
	</g>
	<g id="Shape20">
		
			<desc  transform="matrix(1,0,0,1,717.949,344.621)" type="0" flag="" mesh="" locked="0" pers-end="0,0" pers-start="0,0" pers-size="0,0" pers-center="0,0" blurRadius="4" blurEnabled="0" shadowOpacity="160" shadowBlur="4" shadowOffsetY="2" shadowOffsetX="0" shadowEnabled="0" markerEnd="0" markerStart="0" strokeStyle="0" font-alignment="1" font-underline="0" font-bold="0" font-pixelSize="20" font-familyName="" text="" bounding="rect(-8.84448,-17.046,17.689,34.092)" shapeID="20" basicInfo-starPoints="5" basicInfo-polygonSides="6" basicInfo-roundedRectRadius="12" basicInfo-basicType="0">
			</desc>
		<path id="shapePath20" fill="#4C4C4C" d="M595.736,104.508H581.88v10.091h13.447v3.56H581.88v13.19h13.855v3.565h-17.625v-33.967
			h17.625V104.508z"/>
	</g>
	<g id="Shape21">
		
			<desc  transform="matrix(1,0,0,1,740.235,344.622)" type="0" flag="" mesh="" locked="0" pers-end="0,0" pers-start="0,0" pers-size="0,0" pers-center="0,0" blurRadius="4" blurEnabled="0" shadowOpacity="160" shadowBlur="4" shadowOffsetY="2" shadowOffsetX="0" shadowEnabled="0" markerEnd="0" markerStart="0" strokeStyle="0" font-alignment="1" font-underline="0" font-bold="0" font-pixelSize="20" font-familyName="" text="" bounding="rect(-10.172,-17.046,20.344,34.092)" shapeID="21" basicInfo-starPoints="5" basicInfo-polygonSides="6" basicInfo-roundedRectRadius="12" basicInfo-basicType="0">
			</desc>
		<path id="shapePath21" fill="#4C4C4C" d="M611.007,104.508v30.408h-3.768v-30.408h-8.246v-3.559h20.27v3.559H611.007z"/>
	</g>
</g>
</svg>
